<?xml version="1.0" standalone="no"?>
<!DOCTYPE svg PUBLIC "-//W3C//DTD SVG 20010904//EN"
 "http://www.w3.org/TR/2001/REC-SVG-20010904/DTD/svg10.dtd">
<svg version="1.0" xmlns="http://www.w3.org/2000/svg"
 width="500.000000pt" height="500.000000pt" viewBox="0 0 500.000000 500.000000"
 preserveAspectRatio="xMidYMid meet">
<metadata>
Created by potrace 1.16, written by Peter Selinger 2001-2019
</metadata>
<g transform="translate(0.000000,500.000000) scale(0.100000,-0.100000)"
fill="#000000" stroke="none">
<path d="M0 2500 l0 -2500 2500 0 2500 0 0 2500 0 2500 -2500 0 -2500 0 0
-2500z m4110 -90 l0 -1610 -1610 0 -1610 0 0 1610 0 1610 1610 0 1610 0 0
-1610z"/>
<path d="M1060 2410 l0 -1440 1440 0 1440 0 0 1440 0 1440 -1440 0 -1440 0 0
-1440z m454 241 c24 -27 17 -51 -22 -74 l-32 -19 0 26 c0 21 -5 26 -25 26 -24
0 -25 -3 -25 -55 0 -30 2 -55 5 -55 3 0 28 11 55 25 27 14 52 25 55 25 3 0 5
-61 5 -135 0 -164 -6 -175 -97 -175 -68 0 -93 18 -93 66 0 27 6 36 30 49 39
20 40 20 40 -15 0 -25 4 -30 25 -30 24 0 25 2 25 65 0 36 -3 65 -7 65 -3 0
-30 -14 -60 -30 l-53 -30 0 133 c0 90 4 137 12 145 7 7 40 12 78 12 53 0 70
-4 84 -19z m136 -196 l0 -215 -35 0 -35 0 0 215 0 215 35 0 35 0 0 -215z m110
35 l0 -180 50 0 50 0 0 -35 0 -35 -85 0 -85 0 0 215 0 215 35 0 35 0 0 -180z
m210 0 l0 -180 50 0 50 0 0 -35 0 -35 -85 0 -85 0 0 215 0 215 35 0 35 0 0
-180z m200 95 c0 -63 3 -85 13 -85 27 0 37 25 37 97 l0 73 35 0 35 0 0 -197
c0 -233 0 -233 -92 -233 -45 0 -63 5 -78 20 -29 29 -25 57 10 75 37 19 40 19
40 -5 0 -15 7 -20 25 -20 24 0 25 2 25 65 l0 65 -60 -30 -60 -30 0 145 0 145
35 0 35 0 0 -85z m348 73 c9 -9 12 -70 12 -215 l0 -203 -35 0 -35 0 0 90 0 90
-25 -12 c-24 -11 -25 -16 -25 -90 l0 -78 -35 0 -35 0 0 193 c0 237 0 237 99
237 39 0 72 -5 79 -12z m132 1 c0 -8 4 -8 14 0 8 7 32 11 53 9 58 -5 63 -23
63 -240 l0 -188 -35 0 -35 0 0 185 0 185 -30 0 -30 0 0 -185 0 -185 -35 0 -35
0 0 215 0 215 35 0 c19 0 35 -5 35 -11z m349 -3 c7 -8 15 -30 18 -49 5 -32 2
-37 -25 -51 -41 -21 -42 -21 -42 19 0 32 -2 35 -30 35 l-30 0 0 -150 0 -150
30 0 c29 0 30 1 30 51 0 41 -3 50 -15 45 -12 -4 -15 3 -15 32 0 34 4 41 39 60
21 12 44 22 50 22 8 0 11 -44 11 -140 l0 -140 -79 0 c-121 0 -125 9 -119 248
2 107 7 154 17 165 18 22 143 24 160 3z m231 -16 c0 -29 -1 -30 -50 -30 l-50
0 0 -55 c0 -31 4 -55 10 -55 6 0 29 9 50 20 l40 20 0 -37 c0 -35 -4 -40 -48
-63 -46 -25 -47 -26 -50 -77 l-3 -53 50 0 51 0 0 -35 0 -35 -86 0 -86 0 4 198
c2 150 6 203 17 215 10 13 31 17 82 17 l69 0 0 -30z m110 -150 l0 -180 50 0
50 0 0 -35 0 -35 -85 0 -85 0 0 215 0 215 35 0 35 0 0 -180z m309 162 c5 -10
10 -99 10 -197 1 -213 0 -215 -91 -215 -67 0 -98 21 -98 68 0 22 7 32 35 45
l35 17 0 -30 c0 -25 4 -30 25 -30 24 0 25 2 25 65 0 62 -1 65 -19 55 -29 -15
-31 -13 -31 28 0 32 5 41 25 50 21 10 25 18 25 57 0 41 -2 45 -25 45 -18 0
-25 -5 -25 -20 0 -16 -43 -50 -65 -50 -13 0 -4 95 12 112 24 26 148 26 162 0z"/>
<path d="M2410 2545 c0 -36 3 -65 6 -65 3 0 14 5 25 10 15 9 19 22 19 65 0 52
-1 55 -25 55 -24 0 -25 -2 -25 -65z"/>
</g>
</svg>
